<?xml version="1.0" encoding="utf-8"?>
<!-- Generator: Adobe Illustrator 16.0.0, SVG Export Plug-In . SVG Version: 6.00 Build 0)  -->
<!DOCTYPE svg PUBLIC "-//W3C//DTD SVG 1.1//EN" "http://www.w3.org/Graphics/SVG/1.1/DTD/svg11.dtd">
<svg version="1.1" id="Layer_1" xmlns="http://www.w3.org/2000/svg" xmlns:xlink="http://www.w3.org/1999/xlink" x="0px" y="0px"
	 width="273.5px" height="109.5px" viewBox="0 0 273.5 109.5" enable-background="new 0 0 273.5 109.5" xml:space="preserve">
<g>
	<path fill-rule="evenodd" clip-rule="evenodd" d="M208.896,90.933c0.058-2.602,1.574-3.008,4.164-3.008h7.172
		c1.16,0,3.007,0.31,3.007,1.389v0.926c0,3.469-21.283-0.323-21.283,5.783v7.635h28.687v-4.627h-21.746
		c0.459-5.516,21.515,0.949,21.515-7.403v-3.933c0-3.66-4.115-4.396-7.865-4.396h-12.262c-4.414,0-8.328,0.879-8.328,5.32v2.313
		H208.896z"/>
	<path fill-rule="evenodd" clip-rule="evenodd" d="M248.224,90.933c0-1.975,1.033-3.008,3.008-3.008h7.634
		c2.215,0,2.776,2.142,2.776,4.396v2.082c0,4.12-1.507,4.628-5.552,4.628h-2.082c-3.079,0-5.784-0.11-5.784-3.239V90.933
		L248.224,90.933z M240.589,96.717c0,4.683,2.511,6.94,7.172,6.94h14.112c4.276,0,7.172-1.99,7.172-6.247v-7.402
		c0-4.83-2.575-6.94-7.403-6.94H249.15c-6.033,0-8.561,1.562-8.561,7.634V96.717z"/>
</g>
<g>
	<rect x="161.45" y="43.38" fill-rule="evenodd" clip-rule="evenodd" fill="#819FC2" width="29.844" height="29.612"/>
	<rect x="239.644" y="43.38" fill-rule="evenodd" clip-rule="evenodd" fill="#EAEAEB" width="30.074" height="30.075"/>
	<rect x="4.388" y="43.38" fill-rule="evenodd" clip-rule="evenodd" fill="#F2F1F1" width="30.074" height="30.075"/>
	<rect x="239.29" y="4.194" fill-rule="evenodd" clip-rule="evenodd" fill="#EAEAEB" width="30.075" height="30.075"/>
	<rect x="200.335" y="4.194" fill-rule="evenodd" clip-rule="evenodd" fill="#ECEBEC" width="30.075" height="30.075"/>
	<rect x="200.335" y="43.38" fill-rule="evenodd" clip-rule="evenodd" fill="#ECEBEC" width="30.075" height="30.075"/>
	<rect x="161.381" y="4.194" fill-rule="evenodd" clip-rule="evenodd" fill="#ECEBEC" width="30.074" height="30.075"/>
	<rect x="122.073" y="4.194" fill-rule="evenodd" clip-rule="evenodd" fill="#EEEDEE" width="30.075" height="30.075"/>
	<rect x="122.782" y="43.38" fill-rule="evenodd" clip-rule="evenodd" fill="#EEEDEE" width="30.074" height="30.075"/>
	<rect x="44.165" y="4.194" fill-rule="evenodd" clip-rule="evenodd" fill="#F0F0F1" width="30.075" height="30.075"/>
	<rect x="44.165" y="43.38" fill-rule="evenodd" clip-rule="evenodd" fill="#F0F0F1" width="30.075" height="30.075"/>
	<rect x="83.187" y="43.38" fill-rule="evenodd" clip-rule="evenodd" fill="#819FC2" width="29.844" height="29.612"/>
	<rect x="83.331" y="4.194" fill-rule="evenodd" clip-rule="evenodd" fill="#819FC2" width="29.844" height="29.612"/>
	<rect x="5.069" y="4.194" fill-rule="evenodd" clip-rule="evenodd" fill="#819FC2" width="29.843" height="29.612"/>
</g>
<g>
	<polygon fill-rule="evenodd" clip-rule="evenodd" fill="#9DA2AA" points="6.25,103.366 6.25,83.311 30.585,83.311 30.585,85.44
		10.068,85.44 10.068,92 30.004,92 30.004,94.046 10.068,94.046 10.068,101.265 30.585,101.265 30.585,103.366 	"/>
	<rect x="39.62" y="83.311" fill-rule="evenodd" clip-rule="evenodd" fill="#9DA2AA" width="3.43" height="20.055"/>
	<path fill-rule="evenodd" clip-rule="evenodd" fill="#9DA2AA" d="M53.881,89.936c0-2.561,0.946-4.345,2.849-5.356
		c1.893-1.007,5.25-1.512,10.074-1.512h4.56c4.42,0,7.68,0.418,9.778,1.26c2.099,0.836,3.144,2.146,3.144,3.926V89.1h-4.099v-0.244
		c0-1.38-0.626-2.345-1.877-2.887c-1.259-0.543-3.654-0.814-7.185-0.814h-3.161c-2.461,0-4.23,0.078-5.309,0.23
		c-1.07,0.151-1.992,0.408-2.749,0.768c-0.684,0.331-1.178,0.776-1.457,1.333c-0.28,0.557-0.42,1.554-0.42,3.002v5.71
		c0,1.439,0.14,2.438,0.42,2.993c0.279,0.557,0.773,1.003,1.457,1.334c0.757,0.358,1.662,0.616,2.708,0.768
		c1.045,0.151,2.823,0.229,5.35,0.229h3.161c2.279,0,3.893-0.068,4.839-0.202c0.955-0.133,1.77-0.363,2.461-0.685
		c0.642-0.309,1.095-0.727,1.366-1.256c0.264-0.528,0.396-1.438,0.396-2.722v-1.241h-9.959v-2.032h14.058v3.352
		c0,2.57-0.946,4.358-2.848,5.366c-1.893,1.007-5.251,1.508-10.074,1.508h-4.56c-4.824,0-8.182-0.501-10.074-1.508
		c-1.902-1.008-2.849-2.796-2.849-5.366V89.936z"/>
	<polygon fill-rule="evenodd" clip-rule="evenodd" fill="#9DA2AA" points="95.206,103.366 95.206,83.311 99.136,83.311
		99.136,91.973 119.735,91.973 119.735,83.311 123.666,83.311 123.666,103.366 119.735,103.366 119.735,94.074 99.136,94.074
		99.136,103.366 	"/>
	<polygon fill-rule="evenodd" clip-rule="evenodd" fill="#9DA2AA" points="132.36,85.44 132.36,83.311 159.978,83.311
		159.978,85.44 148.185,85.44 148.185,103.366 144.102,103.366 144.102,85.44 	"/>
	<polygon fill-rule="evenodd" clip-rule="evenodd" fill="#9DA2AA" points="183.917,103.366 180.386,103.366 180.386,94.488
		166.976,83.311 171.198,83.311 182.133,92.659 193.068,83.311 197.312,83.311 183.917,94.452 	"/>
</g>
</svg>
