<?xml version="1.0" encoding="utf-8"?>
<!-- Generator: Adobe Illustrator 21.0.2, SVG Export Plug-In . SVG Version: 6.00 Build 0)  -->
<svg version="1.1" id="Capa_1" xmlns="http://www.w3.org/2000/svg" xmlns:xlink="http://www.w3.org/1999/xlink" x="0px" y="0px"
	 viewBox="0 0 412 312" style="enable-background:new 0 0 412 312;" xml:space="preserve">
<style type="text/css">
	.st0{fill:#ddd;}
	.st1{fill:#FFFFFF;}
</style>
<g>
	<g>
		<path class="st0" d="M269.8,3.9c-38.7,0-70.2,33.3-70.2,74.1c0,40.9,31.5,74.1,70.2,74.1s70.2-33.3,70.2-74.1
			C339.9,37.2,308.5,3.9,269.8,3.9z M269.8,122.2c-22.1,0-40.2-19.8-40.2-44.1s18-44.1,40.2-44.1s40.2,19.8,40.2,44.1
			S291.9,122.2,269.8,122.2z"/>
	</g>
</g>
<g>
	<g>
		<path class="st0" d="M403.7,149.7c0,0-45.6,9.3-61.7,24.5c-15.7-9.3-34-14.6-53.6-14.6h-37.3c-19.9,0-38.6,5.5-54.5,15.2
			c-16.2-15.5-38.2-25-62.3-25h-31C53.5,149.7,13,190.2,13,240v38.2h132.5V308H394v-29.8L403.7,149.7z M146.9,248.3H43V240
			c0-33.3,27.1-60.3,60.3-60.3h31c14.8,0,28.4,5.4,38.9,14.3C159.6,208.8,150.2,227.5,146.9,248.3z M364,278h-50.6h-88.8h-49.1
			v-12.9c0-5.8,0.7-11.4,1.9-16.9c2.4-10.6,7.1-20.4,13.5-28.9c6.4-8.4,14.4-15.4,23.7-20.5c10.8-6,23.2-9.4,36.4-9.4h37.3
			c12.7,0,24.7,3.2,35.3,8.7c9.3,4.9,17.4,11.7,23.9,19.8c6.9,8.7,12,19,14.5,30.1c1.2,5.4,1.9,11.1,1.9,16.9L364,278L364,278z
			 M392.6,248.3c-3.4-21-13-40-26.9-55C324.5,150.5,446.9,113.8,392.6,248.3z"/>
	</g>
</g>
<g>
	<g>
		<path class="st0" d="M118.8,13.9h-0.5c-33.6,0.3-60.6,29.3-60.3,64.7c0.3,35.2,27.6,63.7,60.9,63.7h0.5
			c16.5-0.1,31.8-7.1,43.2-19.5c11.2-12.2,17.2-28.2,17.1-45.1C179.4,42.4,152.1,13.9,118.8,13.9z M140.5,102.4
			c-5.7,6.3-13.3,9.7-21.4,9.8h-0.2c-16.9,0-30.8-15.1-30.9-33.9c-0.2-18.8,13.6-34.3,30.6-34.4h0.2c16.9,0,30.8,15.2,30.9,33.9
			C149.7,87.1,146.5,95.9,140.5,102.4z"/>
	</g>
</g>
<rect x="361.5" y="146.5" class="st1" width="72.5" height="28"/>
<rect x="392.5" y="168" class="st1" width="22.5" height="157"/>
<path class="st1" d="M339.5,171.5c18,13,26.2,21.8,26.2,21.8l12.3-30.8l-40.5-3C337.5,159.5,322,159.5,339.5,171.5z"/>
</svg>
