<?xml version="1.0" encoding="utf-8"?>
<!-- Generator: Adobe Illustrator 21.0.2, SVG Export Plug-In . SVG Version: 6.00 Build 0)  -->
<svg version="1.1" id="Layer_1" xmlns="http://www.w3.org/2000/svg" xmlns:xlink="http://www.w3.org/1999/xlink" x="0px" y="0px"
	 viewBox="0 0 38 35" style="enable-background:new 0 0 38 35;" xml:space="preserve">
<style type="text/css">
	.st0{fill:#CCCCCC;}
</style>
<g>
	<path class="st0" d="M13.4,12.9c0,3.3,2.5,6,5.6,6s5.6-2.7,5.6-6c0-3.2-2.4-5.7-5.6-5.7S13.4,9.7,13.4,12.9z M21.6,12.9
		c0,1.7-1.2,3.1-2.6,3.1s-2.6-1.4-2.6-3.1c0-1.6,1.1-2.7,2.6-2.7S21.6,11.3,21.6,12.9z"/>
	<path class="st0" d="M11.1,29.5H29h0.1h8.1V28c0-4.2-2.7-6.6-7.5-6.6c-1,0-1.9,0.1-2.7,0.3c-0.1,0-0.2,0-0.3,0.1
		c-1.7-1.7-4.4-2.6-7.8-2.6s-6.1,0.9-7.8,2.6c-0.9-0.3-1.9-0.4-3-0.4c-4.8,0-7.5,2.4-7.5,6.6v1.5h8.1H11.1z M29.8,24.5
		c2.9,0,3.9,1.1,4.3,2.1H29c-0.1-0.7-0.3-1.4-0.5-2C28.9,24.5,29.3,24.5,29.8,24.5z M26,26.5H12c0.3-1.8,1.7-4.3,7-4.3
		C20.6,22.2,25.1,22.2,26,26.5z M4,26.5c0.4-1,1.4-2.1,4.3-2.1c0.4,0,0.8,0,1.2,0.1c-0.2,0.6-0.4,1.3-0.5,2L4,26.5L4,26.5z"/>
	<path class="st0" d="M8.2,21.4c2.4,0,4.4-2.1,4.4-4.7c0-2.5-1.9-4.4-4.4-4.4s-4.4,1.9-4.4,4.4C3.9,19.3,5.9,21.4,8.2,21.4z
		 M8.2,15.3c0.8,0,1.4,0.6,1.4,1.5c0,0.9-0.6,1.7-1.4,1.7c-0.7,0-1.4-0.7-1.4-1.7C6.9,15.8,7.4,15.3,8.2,15.3z"/>
	<path class="st0" d="M29.8,21.4c2.4,0,4.4-2.1,4.4-4.7c0-2.5-1.9-4.4-4.4-4.4s-4.4,1.9-4.4,4.4C25.4,19.3,27.3,21.4,29.8,21.4z
		 M29.8,15.3c0.8,0,1.4,0.6,1.4,1.5c0,0.9-0.6,1.7-1.4,1.7c-0.8,0-1.4-0.7-1.4-1.7C28.3,15.8,28.9,15.3,29.8,15.3z"/>
</g>
</svg>
